<svg width="34" height="24" viewBox="0 0 34 24" fill="none" xmlns="http://www.w3.org/2000/svg">
<path d="M9.40469 24C13.2047 24 15.9547 22.15 17.2047 19.1C18.5547 22.15 21.5047 24 25.0047 24C30.1047 24 33.4047 20.5 33.4047 15.7C33.4047 11.4 30.3547 7.9 26.0047 7.9C23.8547 7.9 21.7547 8.6 21.2047 9.3C21.2047 8.35 21.8547 7.15 23.1047 5.7C25.5547 2.85 30.7547 1.4 33.3047 1.4L32.3047 -2.5034e-06C24.6047 -2.5034e-06 18.0047 4.55 16.5047 11.2C15.1047 9 13.0547 7.9 10.4047 7.9C8.25469 7.9 6.15469 8.6 5.60469 9.3C5.60469 8.35 6.25469 7.15 7.50469 5.7C9.95469 2.85 15.1547 1.4 17.7047 1.4L16.7047 -2.5034e-06C13.9047 -2.5034e-06 11.1547 0.649998 8.60469 1.9C3.45469 4.45 0.604688 8.85 0.604688 14C0.604688 20.45 4.40469 24 9.40469 24Z" fill="white"/>
</svg>
