<svg width="123" height="44" viewBox="0 0 123 44" fill="none" xmlns="http://www.w3.org/2000/svg">
<path d="M59.2946 23.4746L53.4053 15.6888H57.0586L61.5904 21.5781L66.4415 15.6888H68.8172L62.6884 23.1951V29.6633H59.2946V23.4746ZM72.0387 18.883C71.493 18.883 71.0405 18.7233 70.6812 18.4038C70.3351 18.0844 70.1621 17.6785 70.1621 17.1861C70.1621 16.6936 70.3351 16.2877 70.6812 15.9683C71.0405 15.6489 71.493 15.4892 72.0387 15.4892C72.5844 15.4892 73.0302 15.6489 73.3762 15.9683C73.7356 16.2877 73.9153 16.6936 73.9153 17.1861C73.9153 17.6785 73.7356 18.0844 73.3762 18.4038C73.0302 18.7233 72.5844 18.883 72.0387 18.883ZM70.5614 19.8812H73.516V29.6633H70.5614V19.8812ZM76.6175 19.8812H79.5721V21.4982C79.8782 20.9392 80.3441 20.5 80.9696 20.1806C81.6084 19.8479 82.3205 19.6815 83.1057 19.6815C84.41 19.6815 85.4348 20.0142 86.1801 20.6797C86.9387 21.3452 87.318 22.2635 87.318 23.4347V29.6633H84.3634V23.255C84.3634 21.5648 83.658 20.7196 82.2473 20.7196C81.4221 20.7196 80.77 21.0257 80.2908 21.638C79.8117 22.2502 79.5721 23.0753 79.5721 24.1134V29.6633H76.6175V19.8812ZM89.4763 24.0136H96.6033V25.0917H89.4763V24.0136ZM109.079 26.1298H101.972L100.255 29.6633H97.8997L105.166 15.4892H107.342L114.19 29.6633H110.736L109.079 26.1298ZM108.5 24.892L105.586 18.6434L102.571 24.892H108.5ZM116.582 15.6888H119.975V29.6633H116.582V15.6888Z" fill="#EEE5FF"/>
<path fill-rule="evenodd" clip-rule="evenodd" d="M22.1066 21.9152C28.3515 21.8206 34 16.4783 34 10.5C34 4.46259 28.247 1.90735e-05 21.9165 1.90735e-05C21.4162 1.90735e-05 20.9234 0.0305862 20.4401 0.0898705C8.78949 0.743271 6.10352e-05 10.0721 6.10352e-05 21.9152C6.10352e-05 28.0247 2.6376 33.6266 7.16404 38.0682C11.6905 42.5098 20.1653 45.1791 27.7507 42.9645L27.6097 42.1993C25.4961 42.7341 21.5049 42.5353 18.0445 41.1146C14.5949 39.6984 11.7808 37.1207 11.7808 32.9543C11.7808 28.5885 13.4431 25.9263 15.5371 24.3062C17.6489 22.6722 20.2367 22.071 22.1066 21.9152Z" fill="url(#paint0_linear_301_1206)"/>
<path fill-rule="evenodd" clip-rule="evenodd" d="M22.2572 21.7054C16.0123 21.8 10.9849 26.7106 10.9849 32.6889C10.9849 38.7263 16.1167 43.6206 22.4472 43.6206C22.9475 43.6206 23.4403 43.59 23.9237 43.5307C35.5743 42.8773 44.3637 33.5485 44.3637 21.7054C44.3637 15.5959 41.7262 9.99399 37.1997 5.55241C32.6733 1.11079 23.88 -1.22061 16.613 0.656103C18.7266 0.121327 23.5397 0.0793241 27.0001 1.5C30.4497 2.91622 33.5001 6.33364 33.5001 10.5C33.5001 14.8658 30.9207 17.6943 28.8267 19.3144C26.7148 20.9484 24.127 21.5496 22.2572 21.7054Z" fill="url(#paint1_linear_301_1206)"/>
<defs>
<linearGradient id="paint0_linear_301_1206" x1="16.6364" y1="44.0452" x2="23.2909" y2="-2.53664" gradientUnits="userSpaceOnUse">
<stop stop-color="#A3ABFF"/>
<stop offset="0.389253" stop-color="#B7BEFF"/>
<stop offset="1" stop-color="#FFF8FE" stop-opacity="0"/>
</linearGradient>
<linearGradient id="paint1_linear_301_1206" x1="11.0909" y1="-4.75496" x2="33.4789" y2="35.2623" gradientUnits="userSpaceOnUse">
<stop stop-color="white"/>
<stop offset="0.200143" stop-color="#FEF6FF"/>
<stop offset="0.528538" stop-color="#FBDEFF"/>
<stop offset="0.78999" stop-color="#D8CBFF"/>
<stop offset="1" stop-color="#C0C6FF"/>
</linearGradient>
</defs>
</svg>
