<svg width="144" height="116" viewBox="0 0 144 116" fill="none" xmlns="http://www.w3.org/2000/svg">
<path d="M18.4056 4.06427C12.8144 10.2537 8.23679 17.2733 4.83945 24.8675C10.3999 22.2759 16.0385 21.9086 22.0887 21.9558C19.846 25.3215 17.7778 28.7982 15.8923 32.3726C10.5835 32.6388 4.72382 32.7871 0 35.6145C0.799206 25.6662 4.14567 17.7534 10.6107 10.1169C12.9018 7.7384 15.5271 5.69988 18.4056 4.06427V4.06427Z" fill="white"/>
<path d="M49.9999 43.6352C43.6743 40.309 36.0563 37.5961 30.5571 33.4577C28.1323 31.6312 25.1531 29.1677 25.2892 25.5718C25.432 21.8648 27.4691 18.3162 29.7103 15.4617C32.4548 11.9839 35.9033 8.93397 39.9129 6.89847C43.5855 4.97769 47.7598 4.20679 51.884 4.68773C56.7677 5.32803 60.6651 8.02069 63.515 11.3334C66.4874 14.7978 68.5041 19.3642 69.9461 24.1092C71.0718 27.8163 72.1125 31.5873 73.4898 35.2304C74.6665 38.324 76.1697 41.3301 77.4552 44.3497C78.7408 47.3692 79.1999 49.6238 78.2885 51.2313C77.377 52.8388 74.857 53.7723 70.6161 53.1219C63.1511 51.9525 56.4956 47.0524 49.9999 43.6352ZM53.0403 33.7206C56.2848 35.6516 59.5292 37.7646 62.8213 39.5238C65.0114 40.6932 66.7221 40.9898 67.8274 40.6527C68.9326 40.3157 69.3782 39.1396 69.3748 37.1816C69.3539 35.2279 68.9652 33.2952 68.2287 31.4829C67.4299 29.4288 66.3815 27.4789 65.1067 25.6763C63.3812 23.2889 61.3471 21.1362 59.0565 19.2732C56.9349 17.4726 54.5199 16.0424 51.9146 15.0438C49.9025 14.262 47.699 14.0999 45.5924 14.5788C43.6369 15.0472 41.882 16.2638 40.4639 18.1982C39.0457 20.1326 38.6274 21.8749 39.2736 23.4487C39.9197 25.0225 41.4025 26.5053 43.7797 28.0859C46.7861 30.1045 49.9557 31.894 53.0403 33.7206Z" fill="white"/>
<path d="M100.941 58.0927C95.0851 52.8893 89.2084 47.6759 82.9576 42.9275C78.9071 39.8507 74.4553 38.0342 72.323 33.4375C73.0032 30.9336 73.146 28.3993 73.969 25.892C86.8141 33.3061 98.003 43.9722 108.699 54.0452C107.182 54.6013 106.407 54.8608 104.832 55.3292C99.8108 39.2441 93.2501 23.6712 85.2395 8.82275C87.8348 6.54568 90.7518 4.65649 93.8982 3.21501C102.101 19.5647 108.926 36.5581 114.303 54.0217C109.971 55.9021 105.553 57.1086 100.941 58.0927Z" fill="white"/>
<path d="M124.244 22.5995C125.645 24.7024 126.332 25.7673 127.666 27.9174C131.937 26.0369 138.157 22.495 142.834 25.1978C143.568 27.729 143.96 30.3457 144 32.9792C138.899 36.9929 134.27 41.6098 129.087 45.5966C119.82 29.9664 109.304 15.3943 97.0237 1.94114C110.716 -2.18379 123.21 0.256121 133.981 9.62819C135.781 11.4143 137.347 13.4185 138.64 15.5932C132.294 9.82702 123.904 9.86409 115.936 11.1177C117.483 13.0926 118.242 14.0969 119.728 16.1324C125.475 14.8349 131.971 13.6385 137.501 16.5435C138.3 17.9332 139.025 19.3641 139.671 20.8302C134.702 18.9126 128.941 21.0054 124.244 22.5995Z" fill="white"/>
<path d="M1.52038 43.9048C3.69014 59.5923 11.3829 71.8222 22.2895 83.1152C25.2857 81.4066 28.3737 80.2675 31.625 79.1049C34.9628 83.1256 38.5329 86.9514 42.3173 90.563C37.5289 93.8353 36.0903 95.8472 36.0087 95.8505C18.0963 83.1455 2.28898 67.2727 0.0375977 44.5788C0.08521 44.5788 0.381087 44.3766 1.52038 43.9048Z" fill="white"/>
<path d="M55.5227 85.4439C52.3395 86.3706 49.7956 87.0447 46.9899 86.6032C43.4054 86.0404 40.3446 83.9577 37.6137 81.902C33.383 78.724 29.8291 74.0431 27.173 69.389C24.5985 64.8799 22.456 59.2385 22.8471 53.9543C23.1464 49.9102 25.6256 46.0819 29.6488 45.0001C36.5492 43.1533 44.1128 46.5773 49.9827 49.6339C56.9443 53.2567 63.7256 58.3657 70.0955 63.3061C72.993 65.5539 76.2171 68.2567 77.5774 71.7042C78.0497 72.9007 78.2276 74.1915 78.0963 75.4697C77.965 76.7479 77.5283 77.9766 76.8224 79.0543C75.4315 81.2751 73.4998 82.394 71.3402 82.9804C69.1806 83.5668 66.7014 83.5937 64.1031 83.806C61.194 84.0595 58.3187 84.6084 55.5227 85.4439ZM52.5605 78.8083C55.0636 79.1453 57.4204 79.6103 59.1514 79.6912C60.8825 79.7721 62.3041 79.6205 63.44 79.1992C64.0148 79.0053 64.5269 78.6623 64.9228 78.206C65.3187 77.7497 65.5841 77.1966 65.6913 76.6043C66.0314 75.2091 65.7525 73.8206 64.7051 72.4726C63.6576 71.1246 61.9436 69.753 59.6582 68.2567C56.4822 66.1576 53.1114 64.3633 49.5916 62.8983C46.6906 61.7188 43.4054 60.6067 40.0691 60.4921C37.6103 60.4113 36.0187 61.1931 35.2569 62.6119C34.4951 64.0307 34.757 66.2953 36.0017 69.0588C37.2464 71.8222 38.8414 73.8004 40.5316 75.1248C42.1341 76.3691 43.991 77.2524 45.973 77.713C47.9354 78.1781 50.0609 78.4612 52.5605 78.8083Z" fill="white"/>
<path d="M79.5669 87.3682C87.2427 83.3915 84.8145 72.9276 83.9132 66.2246C88.138 66.9422 92.433 67.1684 96.7107 66.8986C96.051 76.857 93.6261 83.0107 85.1953 88.7229C84.3723 88.423 83.954 88.2747 83.1072 87.9815C98.2615 85.2653 110.314 73.4095 118.371 61.1796C121.36 59.7939 124.24 58.1899 126.989 56.3807C118.459 72.0446 104.37 85.9898 86.3176 90.1384C83.733 88.9892 82.3794 88.4129 79.5669 87.3682Z" fill="white"/>
<path d="M117.807 79.6643C115.712 81.811 114.613 82.8388 112.365 84.8036C116.123 84.2172 119.935 83.7319 123.37 81.9829C118.575 86.488 113.515 90.7079 108.216 94.6205C103.764 97.2727 98.9623 95.2608 94.5615 93.7207C110.525 84.4868 123.01 72.1761 129.438 54.7395C134.609 50.8358 139.475 46.5492 143.993 41.9165C143.463 48.3078 141.878 54.5695 139.3 60.4517C135.535 62.2547 131.951 64.4957 128.268 66.4504C126.969 68.5836 125.536 70.6344 123.979 72.5906C127.363 71.1886 130.699 69.7564 133.998 68.1691C132.078 71.0944 129.957 73.8847 127.649 76.52C124.459 77.868 121.15 78.7577 117.807 79.6643Z" fill="white"/>
<path d="M44.6364 101.893C47.2517 103.753 48.5576 104.66 51.1457 106.416C53.8664 107.508 55.3423 107.78 58.1617 108.161C59.6989 109.809 60.4641 110.625 61.9945 112.253C57.8828 110.412 53.9446 108.296 50.037 106.069C47.6972 104.677 46.4899 103.925 44.082 102.321C44.1296 102.348 44.2453 102.244 44.6364 101.893Z" fill="white"/>
<path d="M69.2792 115.771C68.2012 115.323 66.8272 114.406 65.3818 113.341C63.9365 112.276 62.4027 111.063 60.8995 109.745C59.2887 108.349 57.7742 106.847 56.3661 105.25C54.8493 103.511 53.8086 102.001 53.2781 100.532C53.0015 99.8441 52.8815 99.1046 52.9268 98.3659C52.9721 97.6272 53.1814 96.9076 53.54 96.2583C54.2984 94.8834 55.8798 93.5421 58.478 92.7838C60.8293 92.0507 63.3701 92.197 65.6199 93.195C67.5665 94.1287 69.1101 95.7241 69.9696 97.6906C70.8538 99.6486 71.1973 101.977 71.33 104.663C71.4626 107.349 71.364 109.54 71.2892 111.302C71.2143 113.065 71.1463 114.386 70.9491 115.184C70.7518 115.983 70.3607 116.222 69.2792 115.771ZM66.2797 109.418C66.8351 109.503 67.4032 109.396 67.8883 109.115C68.2692 108.859 68.4698 108.35 68.5276 107.585C68.5524 106.46 68.4057 105.337 68.0923 104.255C67.725 102.8 67.2625 101.661 66.6436 100.885C66.0847 100.138 65.2918 99.5954 64.3888 99.3419C63.4459 99.1097 62.4622 99.0924 61.5116 99.2914C60.6413 99.4334 59.8179 99.7801 59.1106 100.302C58.8373 100.511 58.6211 100.784 58.4815 101.096C58.3419 101.409 58.2834 101.751 58.3114 102.092C58.3488 102.823 58.7739 103.733 59.5561 104.872C60.2093 105.848 60.993 106.731 61.8857 107.497C62.556 108.073 63.3105 108.545 64.1235 108.896C64.8106 109.18 65.538 109.356 66.2797 109.418Z" fill="white"/>
<path d="M72.7414 115.919C73.6053 108.01 73.0271 100.879 71.1362 93.1613C72.6856 93.5017 74.2068 93.9579 75.6866 94.5261C76.0641 101.374 75.8533 108.064 74.2106 114.763L73.5679 114.952C76.2341 108.815 79.4718 103.217 84.0052 98.2163C85.556 98.978 86.3076 99.3554 87.7461 100.029C82.4306 104.303 78.3699 109.412 74.8024 115.154C73.7413 115.572 73.3128 115.724 72.7414 115.919Z" fill="white"/>
<path d="M86.379 107.629L85.1751 108.872C88.8515 107.966 91.9973 106.291 95.2791 104.491C94.5071 104.987 94.1194 105.229 93.3576 105.701C88.8146 108.459 84.126 110.975 79.312 113.237C82.5406 109.038 85.7363 104.814 88.8991 100.565C92.3204 101.802 96.3572 103.666 99.8941 101.401C99.1051 101.954 98.7106 102.223 97.925 102.749C94.5853 104.882 92.7727 105.054 89.0827 104.805C88.5998 105.314 88.3583 105.566 87.8754 106.069C90.9124 105.961 92.4598 105.701 95.4424 104.228L94.2759 105.004C91.079 106.678 89.4534 107.13 86.379 107.629Z" fill="white"/>
</svg>
