<svg width="1174" height="1174" viewBox="0 0 1174 1174" fill="none" xmlns="http://www.w3.org/2000/svg">
<g filter="url(#filter0_dddddd_123_1538)">
<mask id="path-1-inside-1_123_1538" fill="white">
<path d="M587 556L587.593 585.568L608.92 565.08L588.432 586.407L618 587L588.432 587.593L608.92 608.92L587.593 588.432L587 618L586.407 588.432L565.08 608.92L585.568 587.593L556 587L585.568 586.407L565.08 565.08L586.407 585.568L587 556Z"/>
</mask>
<path d="M587 556L590.999 555.92H583.001L587 556ZM587.593 585.568L583.594 585.648L583.777 594.781L590.364 588.453L587.593 585.568ZM608.92 565.08L611.805 567.851L606.149 562.195L608.92 565.08ZM588.432 586.407L585.547 583.636L579.219 590.223L588.352 590.406L588.432 586.407ZM618 587L618.08 590.999V583.001L618 587ZM588.432 587.593L588.352 583.594L579.219 583.777L585.547 590.364L588.432 587.593ZM608.92 608.92L606.149 611.805L611.805 606.149L608.92 608.92ZM587.593 588.432L590.364 585.547L583.777 579.219L583.594 588.352L587.593 588.432ZM587 618L583.001 618.08H590.999L587 618ZM586.407 588.432L590.406 588.352L590.223 579.219L583.636 585.547L586.407 588.432ZM565.08 608.92L562.195 606.149L567.851 611.805L565.08 608.92ZM585.568 587.593L588.453 590.364L594.781 583.777L585.648 583.594L585.568 587.593ZM556 587L555.92 583.001V590.999L556 587ZM585.568 586.407L585.648 590.406L594.781 590.223L588.453 583.636L585.568 586.407ZM565.08 565.08L567.851 562.195L562.195 567.851L565.08 565.08ZM586.407 585.568L583.636 588.453L590.223 594.781L590.406 585.648L586.407 585.568ZM583.001 556.08L583.594 585.648L591.592 585.488L590.999 555.92L583.001 556.08ZM590.364 588.453L611.691 567.964L606.149 562.195L584.822 582.683L590.364 588.453ZM606.036 562.309L585.547 583.636L591.317 589.178L611.805 567.851L606.036 562.309ZM588.352 590.406L617.92 590.999L618.08 583.001L588.512 582.408L588.352 590.406ZM617.92 583.001L588.352 583.594L588.512 591.592L618.08 590.999L617.92 583.001ZM585.547 590.364L606.036 611.691L611.805 606.149L591.317 584.822L585.547 590.364ZM611.691 606.036L590.364 585.547L584.822 591.317L606.149 611.805L611.691 606.036ZM583.594 588.352L583.001 617.92L590.999 618.08L591.592 588.512L583.594 588.352ZM590.999 617.92L590.406 588.352L582.408 588.512L583.001 618.08L590.999 617.92ZM583.636 585.547L562.309 606.036L567.851 611.805L589.178 591.317L583.636 585.547ZM567.964 611.691L588.453 590.364L582.683 584.822L562.195 606.149L567.964 611.691ZM585.648 583.594L556.08 583.001L555.92 590.999L585.488 591.592L585.648 583.594ZM556.08 590.999L585.648 590.406L585.488 582.408L555.92 583.001L556.08 590.999ZM588.453 583.636L567.964 562.309L562.195 567.851L582.683 589.178L588.453 583.636ZM562.309 567.964L583.636 588.453L589.178 582.683L567.851 562.195L562.309 567.964ZM590.406 585.648L590.999 556.08L583.001 555.92L582.408 585.488L590.406 585.648Z" fill="white" mask="url(#path-1-inside-1_123_1538)"/>
</g>
<defs>
<filter id="filter0_dddddd_123_1538" x="-18.66" y="-14.66" width="1211.32" height="1211.32" filterUnits="userSpaceOnUse" color-interpolation-filters="sRGB">
<feFlood flood-opacity="0" result="BackgroundImageFix"/>
<feColorMatrix in="SourceAlpha" type="matrix" values="0 0 0 0 0 0 0 0 0 0 0 0 0 0 0 0 0 0 127 0" result="hardAlpha"/>
<feOffset/>
<feGaussianBlur stdDeviation="6.615"/>
<feColorMatrix type="matrix" values="0 0 0 0 0.933333 0 0 0 0 0.898039 0 0 0 0 1 0 0 0 1 0"/>
<feBlend mode="normal" in2="BackgroundImageFix" result="effect1_dropShadow_123_1538"/>
<feColorMatrix in="SourceAlpha" type="matrix" values="0 0 0 0 0 0 0 0 0 0 0 0 0 0 0 0 0 0 127 0" result="hardAlpha"/>
<feOffset/>
<feGaussianBlur stdDeviation="13.23"/>
<feColorMatrix type="matrix" values="0 0 0 0 0.933333 0 0 0 0 0.898039 0 0 0 0 1 0 0 0 1 0"/>
<feBlend mode="normal" in2="effect1_dropShadow_123_1538" result="effect2_dropShadow_123_1538"/>
<feColorMatrix in="SourceAlpha" type="matrix" values="0 0 0 0 0 0 0 0 0 0 0 0 0 0 0 0 0 0 127 0" result="hardAlpha"/>
<feOffset/>
<feGaussianBlur stdDeviation="46.305"/>
<feColorMatrix type="matrix" values="0 0 0 0 0.933333 0 0 0 0 0.898039 0 0 0 0 1 0 0 0 1 0"/>
<feBlend mode="normal" in2="effect2_dropShadow_123_1538" result="effect3_dropShadow_123_1538"/>
<feColorMatrix in="SourceAlpha" type="matrix" values="0 0 0 0 0 0 0 0 0 0 0 0 0 0 0 0 0 0 127 0" result="hardAlpha"/>
<feOffset/>
<feGaussianBlur stdDeviation="92.61"/>
<feColorMatrix type="matrix" values="0 0 0 0 0.933333 0 0 0 0 0.898039 0 0 0 0 1 0 0 0 1 0"/>
<feBlend mode="normal" in2="effect3_dropShadow_123_1538" result="effect4_dropShadow_123_1538"/>
<feColorMatrix in="SourceAlpha" type="matrix" values="0 0 0 0 0 0 0 0 0 0 0 0 0 0 0 0 0 0 127 0" result="hardAlpha"/>
<feOffset/>
<feGaussianBlur stdDeviation="158.76"/>
<feColorMatrix type="matrix" values="0 0 0 0 0.933333 0 0 0 0 0.898039 0 0 0 0 1 0 0 0 1 0"/>
<feBlend mode="normal" in2="effect4_dropShadow_123_1538" result="effect5_dropShadow_123_1538"/>
<feColorMatrix in="SourceAlpha" type="matrix" values="0 0 0 0 0 0 0 0 0 0 0 0 0 0 0 0 0 0 127 0" result="hardAlpha"/>
<feOffset/>
<feGaussianBlur stdDeviation="277.83"/>
<feColorMatrix type="matrix" values="0 0 0 0 0.933333 0 0 0 0 0.898039 0 0 0 0 1 0 0 0 1 0"/>
<feBlend mode="normal" in2="effect5_dropShadow_123_1538" result="effect6_dropShadow_123_1538"/>
<feBlend mode="normal" in="SourceGraphic" in2="effect6_dropShadow_123_1538" result="shape"/>
</filter>
</defs>
</svg>
